<svg viewBox="0 0 141 39" xmlns="http://www.w3.org/2000/svg" fill-rule="evenodd" clip-rule="evenodd" stroke-linejoin="round" stroke-miterlimit="1.414"><g fill-rule="nonzero"><path d="M62.917 7.828c.332 0 .611.116.837.352.223.235.337.518.337.852v19.816c0 .353-.114.632-.337.838a1.2 1.2 0 0 1-.837.307c-.333 0-.613-.102-.837-.307-.225-.206-.337-.485-.337-.838V10.411a415.25 415.25 0 0 0-2.952 4.58 392.253 392.253 0 0 1-2.95 4.58c-.118.176-.26.304-.426.383a1.198 1.198 0 0 1-.514.117c-.411 0-.734-.157-.968-.471a920.28 920.28 0 0 1-3.347-4.609 1150.84 1150.84 0 0 0-3.347-4.61v18.467c0 .353-.118.632-.353.838a1.25 1.25 0 0 1-.852.307c-.352 0-.63-.102-.836-.307-.205-.206-.308-.485-.308-.838V9.032c0-.334.103-.617.308-.852.206-.236.484-.352.836-.352h1.704c.215 0 .401.049.557.146.157.099.284.227.382.382l3.083 4.228a895.23 895.23 0 0 1 3.083 4.257c.88-1.408 1.776-2.818 2.686-4.228a330.394 330.394 0 0 0 2.687-4.228c.254-.37.605-.557 1.056-.557h1.645zM75.835 21.274c0-.45-.088-.885-.265-1.307a3.526 3.526 0 0 0-.763-1.13c-.647-.665-1.45-.998-2.408-.998-.959 0-1.771.333-2.436.998a3.497 3.497 0 0 0-.764 1.13 3.36 3.36 0 0 0-.263 1.307v.236h6.899v-.236zm-3.436-5.725c1.585 0 2.945.568 4.081 1.703a5.69 5.69 0 0 1 1.673 4.022v1.35c0 .334-.112.613-.337.837a1.134 1.134 0 0 1-.837.339h-8.043v.468c0 .471.091.916.277 1.336a3.555 3.555 0 0 0 1.85 1.85c.421.186.866.279 1.336.279h3.024c.333 0 .602.104.807.309.206.206.309.474.309.806 0 .353-.103.632-.309.838-.205.205-.474.307-.807.307h-3.024a5.676 5.676 0 0 1-4.067-1.658 5.851 5.851 0 0 1-1.232-1.821 5.533 5.533 0 0 1-.456-2.246v-2.994c0-.782.143-1.516.427-2.201a5.455 5.455 0 0 1 1.276-1.85v.029a5.424 5.424 0 0 1 1.865-1.277 5.738 5.738 0 0 1 2.187-.426M87.548 27.733c.295 0 .558.105.794.309.234.205.352.474.352.807 0 .352-.118.631-.352.837a1.177 1.177 0 0 1-.794.308h-1.291a5.83 5.83 0 0 1-2.261-.44 5.584 5.584 0 0 1-1.835-1.219 5.844 5.844 0 0 1-1.233-1.82 5.54 5.54 0 0 1-.455-2.246V9.384c0-.352.112-.631.338-.836a1.19 1.19 0 0 1 .837-.311c.293 0 .557.104.792.311.234.205.352.484.352.836v6.165h3.788c.332 0 .606.103.823.309.214.205.322.484.322.835 0 .336-.108.609-.322.824a1.124 1.124 0 0 1-.823.322h-3.788v6.43c0 .471.088.915.265 1.335.176.421.42.789.734 1.102.312.314.679.563 1.101.748.42.185.875.279 1.365.279h1.291zM97.648 26.998c.49-.468.734-1.065.734-1.791v-2.553c-.117.04-.244.064-.381.073-.138.01-.285.014-.441.014h-2.995c-.705 0-1.297.236-1.775.705-.481.471-.721 1.058-.721 1.761 0 .354.064.682.192.985.126.304.303.567.529.792.224.227.488.407.792.543.303.138.631.206.983.206h1.351c.333 0 .65-.063.954-.19.303-.127.562-.309.778-.545m-.498-11.449c.45 0 .898.088 1.35.264.45.177.841.432 1.174.766.685.723 1.027 1.573 1.027 2.552v9.718c0 .352-.103.631-.307.837-.206.205-.476.307-.809.307-.567 0-.949-.224-1.144-.675-.745.451-1.586.675-2.525.675h-1.351a4.83 4.83 0 0 1-1.879-.366 4.656 4.656 0 0 1-1.527-1.014 4.853 4.853 0 0 1-1.027-1.525 4.668 4.668 0 0 1-.381-1.881c0-.663.117-1.279.352-1.849a4.672 4.672 0 0 1 1.027-1.527 4.843 4.843 0 0 1 1.556-1.041 4.83 4.83 0 0 1 1.879-.367h2.995c.274 0 .488-.078.646-.235h-.029c.136-.136.205-.361.205-.675v-.382c0-.411-.117-.723-.353-.939-.215-.234-.508-.353-.879-.353h-5.227c-.333 0-.612-.108-.837-.322a1.089 1.089 0 0 1-.337-.824c0-.35.112-.63.337-.835.225-.206.504-.309.837-.309h5.227zM111.975 21.451c0-1.018-.343-1.88-1.027-2.584a3.445 3.445 0 0 0-1.146-.763 3.67 3.67 0 0 0-1.408-.265h-2.702v9.894h2.702c.977 0 1.82-.362 2.524-1.086a3.23 3.23 0 0 0 .792-1.161 3.62 3.62 0 0 0 .265-1.364v-2.671zm-3.581-5.902c.763 0 1.511.147 2.245.441a5.457 5.457 0 0 1 1.923 1.291 5.191 5.191 0 0 1 1.307 1.909 6.16 6.16 0 0 1 .426 2.261v2.671a6.16 6.16 0 0 1-.426 2.261 5.44 5.44 0 0 1-1.307 1.938v-.03a6.137 6.137 0 0 1-1.908 1.249 5.82 5.82 0 0 1-2.26.453h-3.319l-.529.031c-.116 0-.263-.034-.439-.104a1.17 1.17 0 0 1-.411-.249c-.196-.254-.294-.518-.294-.792V9.354c0-.351.102-.63.308-.837.206-.205.485-.307.836-.307.354 0 .632.102.838.307.205.207.308.486.308.837v6.195h2.702zM119.021 28.82c0 .352-.113.63-.337.837a1.203 1.203 0 0 1-.837.308c-.744 0-1.116-.382-1.116-1.145V16.693c0-.35.102-.63.308-.834.206-.208.474-.31.808-.31.333 0 .611.102.837.31.224.204.337.484.337.834V28.82zm-1.174-14.091c-.334 0-.602-.114-.808-.34a1.188 1.188 0 0 1-.308-.836c0-.353.102-.632.308-.838.206-.204.474-.307.808-.307.333 0 .611.103.837.307.224.206.337.485.337.838 0 .333-.113.612-.337.836-.226.226-.504.34-.837.34M128.415 27.733c.294 0 .559.105.793.309.235.205.352.474.352.807 0 .352-.117.631-.352.837a1.173 1.173 0 0 1-.793.308h-1.291a5.83 5.83 0 0 1-2.261-.44 5.584 5.584 0 0 1-1.835-1.219 5.861 5.861 0 0 1-1.233-1.82 5.54 5.54 0 0 1-.455-2.246V9.384c0-.352.112-.631.338-.836.224-.207.504-.311.836-.311.294 0 .559.104.793.311.235.205.353.484.353.836v6.165h3.787c.334 0 .607.103.822.309.214.205.323.484.323.835 0 .336-.109.609-.323.824a1.115 1.115 0 0 1-.822.322h-3.787v6.43a3.425 3.425 0 0 0 .997 2.437c.313.314.68.563 1.102.748.421.185.875.279 1.365.279h1.291zM139.513 24.474c.666.628.998 1.408.998 2.349 0 .842-.322 1.586-.968 2.231-.588.626-1.341.939-2.26.939h-5.403c-.333 0-.602-.102-.808-.307-.205-.206-.307-.485-.307-.837 0-.333.102-.602.307-.807.206-.204.475-.309.808-.309h5.403a.767.767 0 0 0 .366-.102c.127-.07.25-.133.366-.191a.687.687 0 0 0 .148-.308c.019-.108.029-.21.029-.309 0-.214-.077-.45-.234-.705a553.112 553.112 0 0 1-2.907-2.509 307.29 307.29 0 0 1-2.877-2.539c-.666-.647-.999-1.43-.999-2.351 0-.429.088-.839.265-1.231a3.73 3.73 0 0 1 .675-1.029c.587-.626 1.351-.939 2.291-.939h4.697c.332 0 .611.103.836.308.225.206.337.476.337.807 0 .371-.112.662-.337.866a1.188 1.188 0 0 1-.836.309h-4.697c-.275 0-.5.089-.676.263-.158.197-.235.41-.235.646 0 .313.058.52.177.617.018.02.517.455 1.496 1.308.978.851 2.427 2.128 4.345 3.83" fill="#58595b"/><path d="M0 11.502v16.951c0 1.202.89 2.6 1.979 3.107l12.417 5.795c1.087.508 1.979-.058 1.979-1.26V19.143c0-1.2-.892-2.598-1.979-3.106L1.979 10.242a1.816 1.816 0 0 0-.766-.187C.502 10.055 0 10.6 0 11.502z" fill="url(#a)"/><path d="M32.955 10.242l-12.418 5.795c-1.087.508-1.977 1.906-1.977 3.106v16.952c0 1.202.89 1.768 1.977 1.26l12.418-5.795c1.088-.507 1.979-1.905 1.979-3.107V11.502c0-.902-.502-1.447-1.214-1.447-.236 0-.494.06-.765.187z" fill="url(#b)"/><path d="M17.388 0c-.694.009-1.382.133-1.908.373L3.375 5.904c-1.092.498-1.092 1.315 0 1.813l12.105 5.531c1.093.498 2.879.498 3.971 0l12.105-5.531c1.093-.498 1.093-1.315 0-1.813L19.451.373C18.925.133 18.238.009 17.544 0h-.156z" fill="url(#c)"/></g><defs><linearGradient id="a" x2="1" gradientUnits="userSpaceOnUse" gradientTransform="scale(44.3869) rotate(46.591 -.308 -.033)"><stop offset="0" stop-color="#2bc4f3"/><stop offset=".5" stop-color="#00aeee"/><stop offset="1" stop-color="#0095da"/></linearGradient><linearGradient id="b" x2="1" gradientUnits="userSpaceOnUse" gradientTransform="scale(44.1152) rotate(46.591 .04 .129)"><stop offset="0" stop-color="#58595b"/><stop offset="1" stop-color="#808184"/></linearGradient><linearGradient id="c" x2="1" gradientUnits="userSpaceOnUse" gradientTransform="scale(44.936) rotate(46.591 .174 .165)"><stop offset="0" stop-color="#f074ac"/><stop offset=".5" stop-color="#eb008b"/><stop offset="1" stop-color="#cd118c"/></linearGradient></defs></svg>