<?xml version="1.0" encoding="UTF-8" standalone="no"?><!DOCTYPE svg PUBLIC "-//W3C//DTD SVG 1.1//EN" "http://www.w3.org/Graphics/SVG/1.1/DTD/svg11.dtd"><svg width="100%" height="100%" viewBox="0 0 141 39" version="1.1" xmlns="http://www.w3.org/2000/svg" xmlns:xlink="http://www.w3.org/1999/xlink" xml:space="preserve" xmlns:serif="http://www.serif.com/" style="fill-rule:evenodd;clip-rule:evenodd;stroke-linejoin:round;stroke-miterlimit:1.41421;"><g><path d="M62.917,7.828c0.332,0 0.611,0.116 0.837,0.352c0.223,0.235 0.337,0.518 0.337,0.852l0,19.816c0,0.353 -0.114,0.632 -0.337,0.838c-0.229,0.206 -0.529,0.316 -0.837,0.307c-0.333,0 -0.613,-0.102 -0.837,-0.307c-0.225,-0.206 -0.337,-0.485 -0.337,-0.838l0,-18.437c-0.994,1.52 -1.978,3.047 -2.952,4.58c-0.973,1.533 -1.956,3.06 -2.95,4.58c-0.118,0.176 -0.26,0.304 -0.426,0.383c-0.161,0.077 -0.336,0.117 -0.514,0.117c-0.411,0 -0.734,-0.157 -0.968,-0.471c-1.12,-1.533 -2.236,-3.069 -3.347,-4.609c-1.112,-1.539 -2.228,-3.076 -3.347,-4.61l0,18.467c0,0.353 -0.118,0.632 -0.353,0.838c-0.236,0.205 -0.54,0.315 -0.852,0.307c-0.352,0 -0.63,-0.102 -0.836,-0.307c-0.205,-0.206 -0.308,-0.485 -0.308,-0.838l0,-19.816c0,-0.334 0.103,-0.617 0.308,-0.852c0.206,-0.236 0.484,-0.352 0.836,-0.352l1.704,0c0.215,0 0.401,0.049 0.557,0.146c0.157,0.099 0.284,0.227 0.382,0.382l3.083,4.228c1.032,1.416 2.06,2.835 3.083,4.257c0.88,-1.408 1.776,-2.818 2.686,-4.228c0.906,-1.403 1.802,-2.812 2.687,-4.228c0.254,-0.37 0.605,-0.557 1.056,-0.557l1.645,0Zm12.918,13.446c0,-0.45 -0.088,-0.885 -0.265,-1.307c-0.178,-0.423 -0.438,-0.807 -0.763,-1.13c-0.647,-0.665 -1.45,-0.998 -2.408,-0.998c-0.959,0 -1.771,0.333 -2.436,0.998c-0.326,0.323 -0.586,0.707 -0.764,1.13c-0.174,0.414 -0.264,0.858 -0.263,1.307l0,0.236l6.899,0l0,-0.236Zm-3.436,-5.725c1.585,0 2.945,0.568 4.081,1.703c1.069,1.065 1.671,2.513 1.673,4.022l0,1.35c0,0.334 -0.112,0.613 -0.337,0.837c-0.22,0.224 -0.523,0.347 -0.837,0.339l-8.043,0l0,0.468c0,0.471 0.091,0.916 0.277,1.336c0.359,0.829 1.021,1.491 1.85,1.85c0.421,0.186 0.866,0.279 1.336,0.279l3.024,0c0.333,0 0.602,0.104 0.807,0.309c0.206,0.206 0.309,0.474 0.309,0.806c0,0.353 -0.103,0.632 -0.309,0.838c-0.205,0.205 -0.474,0.307 -0.807,0.307l-3.024,0c-1.523,0.015 -2.989,-0.582 -4.067,-1.658c-0.522,-0.524 -0.94,-1.142 -1.232,-1.821c-0.307,-0.709 -0.462,-1.474 -0.456,-2.246l0,-2.994c0,-0.782 0.143,-1.516 0.427,-2.201c0.292,-0.699 0.727,-1.329 1.276,-1.85l0,0.029c0.525,-0.552 1.161,-0.987 1.865,-1.277c0.694,-0.284 1.437,-0.428 2.187,-0.426m15.149,12.184c0.295,0 0.558,0.105 0.794,0.309c0.234,0.205 0.352,0.474 0.352,0.807c0,0.352 -0.118,0.631 -0.352,0.837c-0.217,0.198 -0.5,0.308 -0.794,0.308l-1.291,0c-0.775,0.005 -1.544,-0.144 -2.261,-0.44c-0.687,-0.28 -1.31,-0.695 -1.835,-1.219c-0.522,-0.523 -0.941,-1.141 -1.233,-1.82c-0.307,-0.709 -0.462,-1.474 -0.455,-2.246l0,-14.885c0,-0.352 0.112,-0.631 0.338,-0.836c0.228,-0.208 0.528,-0.32 0.837,-0.311c0.293,0 0.557,0.104 0.792,0.311c0.234,0.205 0.352,0.484 0.352,0.836l0,6.165l3.788,0c0.332,0 0.606,0.103 0.823,0.309c0.214,0.205 0.322,0.484 0.322,0.835c0,0.336 -0.108,0.609 -0.322,0.824c-0.219,0.215 -0.516,0.332 -0.823,0.322l-3.788,0l0,6.43c0,0.471 0.088,0.915 0.265,1.335c0.176,0.421 0.42,0.789 0.734,1.102c0.312,0.314 0.679,0.563 1.101,0.748c0.42,0.185 0.875,0.279 1.365,0.279l1.291,0Zm10.1,-0.735c0.49,-0.468 0.734,-1.065 0.734,-1.791l0,-2.553c-0.117,0.04 -0.244,0.064 -0.381,0.073c-0.138,0.01 -0.285,0.014 -0.441,0.014l-2.995,0c-0.705,0 -1.297,0.236 -1.775,0.705c-0.481,0.471 -0.721,1.058 -0.721,1.761c0,0.354 0.064,0.682 0.192,0.985c0.126,0.304 0.303,0.567 0.529,0.792c0.224,0.227 0.488,0.407 0.792,0.543c0.303,0.138 0.631,0.206 0.983,0.206l1.351,0c0.333,0 0.65,-0.063 0.954,-0.19c0.303,-0.127 0.562,-0.309 0.778,-0.545m-0.498,-11.449c0.45,0 0.898,0.088 1.35,0.264c0.45,0.177 0.841,0.432 1.174,0.766c0.685,0.723 1.027,1.573 1.027,2.552l0,9.718c0,0.352 -0.103,0.631 -0.307,0.837c-0.206,0.205 -0.476,0.307 -0.809,0.307c-0.567,0 -0.949,-0.224 -1.144,-0.675c-0.745,0.451 -1.586,0.675 -2.525,0.675l-1.351,0c-0.644,0.005 -1.283,-0.12 -1.879,-0.366c-0.571,-0.233 -1.09,-0.578 -1.527,-1.014c-0.436,-0.438 -0.785,-0.956 -1.027,-1.525c-0.256,-0.594 -0.386,-1.234 -0.381,-1.881c0,-0.663 0.117,-1.279 0.352,-1.849c0.238,-0.572 0.587,-1.091 1.027,-1.527c0.446,-0.445 0.975,-0.799 1.556,-1.041c0.596,-0.246 1.234,-0.371 1.879,-0.367l2.995,0c0.274,0 0.488,-0.078 0.646,-0.235l-0.029,0c0.136,-0.136 0.205,-0.361 0.205,-0.675l0,-0.382c0,-0.411 -0.117,-0.723 -0.353,-0.939c-0.215,-0.234 -0.508,-0.353 -0.879,-0.353l-5.227,0c-0.333,0 -0.612,-0.108 -0.837,-0.322c-0.224,-0.214 -0.347,-0.514 -0.337,-0.824c0,-0.35 0.112,-0.63 0.337,-0.835c0.225,-0.206 0.504,-0.309 0.837,-0.309l5.227,0Zm14.825,5.902c0,-1.018 -0.343,-1.88 -1.027,-2.584c-0.327,-0.329 -0.717,-0.588 -1.146,-0.763c-0.447,-0.18 -0.926,-0.27 -1.408,-0.265l-2.702,0l0,9.894l2.702,0c0.977,0 1.82,-0.362 2.524,-1.086c0.346,-0.324 0.616,-0.721 0.792,-1.161c0.176,-0.433 0.266,-0.896 0.265,-1.364l0,-2.671Zm-3.581,-5.902c0.763,0 1.511,0.147 2.245,0.441c0.726,0.288 1.382,0.728 1.923,1.291c0.574,0.53 1.02,1.182 1.307,1.909c0.283,0.72 0.427,1.487 0.426,2.261l0,2.671c0.001,0.774 -0.143,1.541 -0.426,2.261c-0.29,0.733 -0.736,1.394 -1.307,1.938l0,-0.03c-0.552,0.532 -1.2,0.956 -1.908,1.249c-0.716,0.3 -1.484,0.454 -2.26,0.453l-3.319,0l-0.529,0.031c-0.116,0 -0.263,-0.034 -0.439,-0.104c-0.153,-0.054 -0.293,-0.138 -0.411,-0.249c-0.196,-0.254 -0.294,-0.518 -0.294,-0.792l0,-19.525c0,-0.351 0.102,-0.63 0.308,-0.837c0.206,-0.205 0.485,-0.307 0.836,-0.307c0.354,0 0.632,0.102 0.838,0.307c0.205,0.207 0.308,0.486 0.308,0.837l0,6.195l2.702,0Zm10.627,13.271c0,0.352 -0.113,0.63 -0.337,0.837c-0.229,0.206 -0.529,0.316 -0.837,0.308c-0.744,0 -1.116,-0.382 -1.116,-1.145l0,-12.127c0,-0.35 0.102,-0.63 0.308,-0.834c0.206,-0.208 0.474,-0.31 0.808,-0.31c0.333,0 0.611,0.102 0.837,0.31c0.224,0.204 0.337,0.484 0.337,0.834l0,12.127Zm-1.174,-14.091c-0.334,0 -0.602,-0.114 -0.808,-0.34c-0.207,-0.228 -0.318,-0.528 -0.308,-0.836c0,-0.353 0.102,-0.632 0.308,-0.838c0.206,-0.204 0.474,-0.307 0.808,-0.307c0.333,0 0.611,0.103 0.837,0.307c0.224,0.206 0.337,0.485 0.337,0.838c0,0.333 -0.113,0.612 -0.337,0.836c-0.226,0.226 -0.504,0.34 -0.837,0.34m10.568,13.004c0.294,0 0.559,0.105 0.793,0.309c0.235,0.205 0.352,0.474 0.352,0.807c0,0.352 -0.117,0.631 -0.352,0.837c-0.216,0.198 -0.5,0.308 -0.793,0.308l-1.291,0c-0.775,0.005 -1.544,-0.144 -2.261,-0.44c-0.687,-0.28 -1.31,-0.695 -1.835,-1.219c-0.522,-0.523 -0.94,-1.141 -1.233,-1.82c-0.307,-0.709 -0.462,-1.474 -0.455,-2.246l0,-14.885c0,-0.352 0.112,-0.631 0.338,-0.836c0.224,-0.207 0.504,-0.311 0.836,-0.311c0.294,0 0.559,0.104 0.793,0.311c0.235,0.205 0.353,0.484 0.353,0.836l0,6.165l3.787,0c0.334,0 0.607,0.103 0.822,0.309c0.214,0.205 0.323,0.484 0.323,0.835c0,0.336 -0.109,0.609 -0.323,0.824c-0.218,0.216 -0.516,0.332 -0.822,0.322l-3.787,0l0,6.43c-0.006,0.912 0.353,1.79 0.997,2.437c0.313,0.314 0.68,0.563 1.102,0.748c0.421,0.185 0.875,0.279 1.365,0.279l1.291,0Zm11.098,-3.259c0.666,0.628 0.998,1.408 0.998,2.349c0,0.842 -0.322,1.586 -0.968,2.231c-0.588,0.626 -1.341,0.939 -2.26,0.939l-5.403,0c-0.333,0 -0.602,-0.102 -0.808,-0.307c-0.205,-0.206 -0.307,-0.485 -0.307,-0.837c0,-0.333 0.102,-0.602 0.307,-0.807c0.206,-0.204 0.475,-0.309 0.808,-0.309l5.403,0c0.129,-0.003 0.254,-0.038 0.366,-0.102c0.127,-0.07 0.25,-0.133 0.366,-0.191c0.074,-0.089 0.125,-0.195 0.148,-0.308c0.019,-0.108 0.029,-0.21 0.029,-0.309c0,-0.214 -0.077,-0.45 -0.234,-0.705c-0.972,-0.833 -1.941,-1.669 -2.907,-2.509c-0.964,-0.84 -1.923,-1.687 -2.877,-2.539c-0.666,-0.647 -0.999,-1.43 -0.999,-2.351c0,-0.429 0.088,-0.839 0.265,-1.231c0.166,-0.378 0.395,-0.726 0.675,-1.029c0.587,-0.626 1.351,-0.939 2.291,-0.939l4.697,0c0.332,0 0.611,0.103 0.836,0.308c0.225,0.206 0.337,0.476 0.337,0.807c0,0.371 -0.112,0.662 -0.337,0.866c-0.228,0.208 -0.528,0.318 -0.836,0.309l-4.697,0c-0.275,0 -0.5,0.089 -0.676,0.263c-0.158,0.197 -0.235,0.41 -0.235,0.646c0,0.313 0.058,0.52 0.177,0.617c0.018,0.02 0.517,0.455 1.496,1.308c0.978,0.851 2.427,2.128 4.345,3.83" style="fill:#58595b;fill-rule:nonzero;"/><path d="M0,11.502l0,16.951c0,1.202 0.89,2.6 1.979,3.107l12.417,5.795c1.087,0.508 1.979,-0.058 1.979,-1.26l0,-16.952c0,-1.2 -0.892,-2.598 -1.979,-3.106l-12.417,-5.795c-0.239,-0.118 -0.5,-0.182 -0.766,-0.187c-0.711,0 -1.213,0.545 -1.213,1.447Z" style="fill:url(#_Linear1);fill-rule:nonzero;"/><path d="M32.955,10.242l-12.418,5.795c-1.087,0.508 -1.977,1.906 -1.977,3.106l0,16.952c0,1.202 0.89,1.768 1.977,1.26l12.418,-5.795c1.088,-0.507 1.979,-1.905 1.979,-3.107l0,-16.951c0,-0.902 -0.502,-1.447 -1.214,-1.447c-0.236,0 -0.494,0.06 -0.765,0.187Z" style="fill:url(#_Linear2);fill-rule:nonzero;"/><path d="M17.388,0c-0.694,0.009 -1.382,0.133 -1.908,0.373l-12.105,5.531c-1.092,0.498 -1.092,1.315 0,1.813l12.105,5.531c1.093,0.498 2.879,0.498 3.971,0l12.105,-5.531c1.093,-0.498 1.093,-1.315 0,-1.813l-12.105,-5.531c-0.526,-0.24 -1.213,-0.364 -1.907,-0.373l-0.156,0Z" style="fill:url(#_Linear3);fill-rule:nonzero;"/></g><defs><linearGradient id="_Linear1" x1="0" y1="0" x2="1" y2="0" gradientUnits="userSpaceOnUse" gradientTransform="matrix(30.5028,32.2456,-32.2456,30.5028,-329.57,316.179)"><stop offset="0" style="stop-color:#2bc4f3;stop-opacity:1"/><stop offset="0.5" style="stop-color:#00aeee;stop-opacity:1"/><stop offset="1" style="stop-color:#0095da;stop-opacity:1"/></linearGradient><linearGradient id="_Linear2" x1="0" y1="0" x2="1" y2="0" gradientUnits="userSpaceOnUse" gradientTransform="matrix(-532.35,-562.767,562.767,-532.35,245.107,900.141)"><stop offset="0" style="stop-color:#58595b;stop-opacity:1"/><stop offset="1" style="stop-color:#808184;stop-opacity:1"/></linearGradient><linearGradient id="_Linear3" x1="0" y1="0" x2="1" y2="0" gradientUnits="userSpaceOnUse" gradientTransform="matrix(-48.0494,-50.7949,50.7949,-48.0494,86.7616,80.0784)"><stop offset="0" style="stop-color:#f074ac;stop-opacity:1"/><stop offset="0.5" style="stop-color:#eb008b;stop-opacity:1"/><stop offset="1" style="stop-color:#cd118c;stop-opacity:1"/></linearGradient></defs></svg>